<svg width="78" height="78" viewBox="0 0 78 78" fill="none" xmlns="http://www.w3.org/2000/svg">
<path d="M37.9592 0.92454C38.1056 -0.30818 39.8944 -0.30818 40.0408 0.92454L41.2678 11.2659C42.8523 24.6195 53.3805 35.1477 66.7339 36.7322L77.0753 37.9592C78.3082 38.1056 78.3082 39.8944 77.0753 40.0408L66.7339 41.2678C53.3805 42.8523 42.8523 53.3805 41.2678 66.7339L40.0408 77.0753C39.8944 78.3082 38.1056 78.3082 37.9592 77.0753L36.7322 66.7339C35.1477 53.3805 24.6195 42.8523 11.2659 41.2678L0.92454 40.0408C-0.30818 39.8944 -0.30818 38.1056 0.92454 37.9592L11.2659 36.7322C24.6195 35.1477 35.1477 24.6195 36.7322 11.2659L37.9592 0.92454Z" fill="#FFFBF5"/>
</svg>
